<svg xmlns="http://www.w3.org/2000/svg" width="413" height="359" viewBox="0 0 413 359">
    <g fill="none" fill-rule="evenodd">
        <g>
            <g>
                <path fill="#F2F8F9" d="M56.981 164.208C51.191 55.603 173.408-11.659 205.845 96.923c10.054 33.657 16.53 48.674 98.676 75.333 58.899 19.115 38.398 131.267-54.914 142.375-123.309 14.678-185.854-23.424-192.626-150.423z" transform="translate(-630 -227) translate(630 227) scale(-1 1) rotate(-21 0 1243.712)"/>
                <path fill="#C2D5DA" d="M211.663 306.25c64.393 0 116.672 3.82 116.672 8.525s-52.28 8.525-116.672 8.525c-64.394 0-116.673-3.82-116.673-8.525s52.28-8.525 116.673-8.525z" transform="translate(-630 -227) translate(630 227)"/>
                <g>
                    <g>
                        <path fill="#FFC7C0" d="M172.043 148.572c-10.72 4.915-24.111 17.24-24.476 17.108l-3.118-1.354-2.448 5.39 7.044 2.779c.274.104.586.094.854-.025 17.337-7.722 23.338-15.55 25.862-20.423 1.21-2.333-1.318-4.576-3.718-3.475zM136.711 43.512s-14.206-6.894-11.803-25.262c.084-.641-.445-1.2-1.091-1.2h-7.959c-.688 0-1.181.624-1.076 1.306 2.863 18.51-10.98 25.14-10.98 25.14S95.716 131.36 94.51 146.75c-.036.458.212.884.628 1.075 5.063 2.323 14.192 5.676 25.996 5.625 11.472-.05 20.363-3.294 25.396-5.597.442-.202.693-.671.622-1.154C145.2 133.476 136.71 43.512 136.71 43.512z" transform="translate(-630 -227) translate(630 227) translate(97.608 19.5) translate(.448 137.433)"/>
                        <path fill="#FFC7C0" d="M133.095 13.916l.039-.049c.51-.617 1.13-1.142 1.819-1.26.937-.16 1.78.78 1.897 2.004.156 1.625-1.14 5.098-4.691 6.613-1.849 5.893-6.188 10.092-11.395 10.286-5.31.198-10.031-3.825-12.263-9.753-3.566-1.496-5.117-5.507-4.965-7.177.113-1.238.924-2.188 1.828-2.028.674.12 1.282.666 1.78 1.303.123-8.67 5.774-12.866 12.654-13.122 7.147-.266 12.92 3.818 13.297 13.183z" transform="translate(-630 -227) translate(630 227) translate(97.608 19.5) translate(.448 137.433)"/>
                        <path fill="#2A2C30" fill-rule="nonzero" d="M146.53 148.32c.442-.204.693-.677.622-1.164-.403-2.756-1.01-8.278-1.736-15.406-18.165 4.528-42.15 1.902-49.723.886-.538 6.51-.958 11.665-1.183 14.572-.036.462.211.89.628 1.084 5.063 2.343 14.192 5.727 25.996 5.674 11.472-.05 20.363-3.323 25.396-5.646z" transform="translate(-630 -227) translate(630 227) translate(97.608 19.5) translate(.448 137.433)"/>
                        <path fill="#4A505B" d="M145.097 161.827c-35.072-30.47-84.99-52.199-106.933-43.733-.056.023-.108.046-.161.077-.864.49-8.367 5.05-1.635 12.31 18.618 20.077 83.48 37.496 104.462 40.011.232.028.456-.019.661-.132.81-.45 2.742-2.039 4.094-7.33.118-.462-.129-.89-.488-1.203z" transform="translate(-630 -227) translate(630 227) translate(97.608 19.5) translate(.448 137.433)"/>
                        <path fill="#FFC7C0" d="M109.08 160.222l-15.173 5.48c-.363.13-.764.064-1.062-.18-2.58-2.114-15.09-12.253-23.252-16.879-2.283-1.293-4.895 1.14-3.694 3.466 2.508 4.858 8.468 12.662 25.69 20.361.267.119.576.13.85.025l18.403-7.035c.537-.205.822-.79.651-1.337l-1-3.201c-.184-.592-.829-.911-1.414-.7z" transform="translate(-630 -227) translate(630 227) translate(97.608 19.5) translate(.448 137.433)"/>
                        <path fill="#FFC7C0" d="M109.08 160.222l-15.173 5.48c-.363.13-.764.064-1.062-.18-2.58-2.114-15.09-12.253-23.252-16.879-2.283-1.293-4.895 1.14-3.694 3.466 2.508 4.858 8.468 12.662 25.69 20.361.267.119.576.13.85.025l18.403-7.035c.537-.205.822-.79.651-1.337l-1-3.201c-.184-.592-.829-.911-1.414-.7z" transform="translate(-630 -227) translate(630 227) translate(97.608 19.5) translate(.448 137.433)"/>
                        <path fill="#4A505B" d="M97.61 161.86c8.024-4.965 84.986-52 106.928-43.567.057.022.108.046.162.076.864.488 8.366 5.032 1.634 12.263-18.617 20.001-83.476 37.355-104.457 39.86-.233.028-.457-.018-.662-.132-.809-.447-2.741-2.03-4.094-7.3-.118-.462.084-.95.489-1.2z" transform="translate(-630 -227) translate(630 227) translate(97.608 19.5) translate(.448 137.433)"/>
                        <path fill="#F4B9B2" d="M124.449 122.708c0 .714-1.271 1.292-2.84 1.292-1.568 0-2.839-.578-2.839-1.292 0-.713 1.27-1.291 2.84-1.291 1.568 0 2.839.578 2.839 1.291z" transform="translate(-630 -227) translate(630 227) translate(97.608 19.5) translate(.448 137.433)"/>
                        <path fill="#FFC7C0" d="M137.355 45.467s42.01 64.593 42.442 64.421c4.847-1.922 32.927-12.98 38.355-13.36.096-.007.184-.002.279.015.312.057 1.095.238 2.228.771.136.064.282.1.433.104 1.51.032 3.944.366 6.795 1.815 2.55 1.296 4.742 1.853 6.238 2.09 1.135.18 1.261 1.776.165 2.12-.45.142-1.006.252-1.69.311-.556.048-1.135.023-1.72-.055-.977-.13-1.629.955-1.03 1.735l.166.219c.126.166.298.303.494.376 2.478.93 5.29.969 9.225.133 0 0 1.692.788.357 1.812-.339.259-.731.476-1.165.656.36.283.55.69-.11 1.197-.366.28-.808.513-1.311.704-.367.14-.697.428-.745.817-.026.206-.18.445-.535.725-2.53 1.993-8.556 1.816-13.576.102-.191-.066-.357-.181-.486-.337-.718-.866-3.316-4.008-6.008-7.319-.343-.422-.92-.5-1.408-.255l-38.245 19.22c-15.493-14.575-26.867-30.222-38.21-45.878l-.938-32.14zM103.799 45.983s-43.28 63.061-43.694 62.852c-5.795-2.92-32.146-11.358-37.583-11.74-.097-.007-.184-.001-.28.016-.311.056-1.096.238-2.23.773-.137.065-.284.101-.435.104-1.511.032-3.95.368-6.806 1.822-2.554 1.301-4.75 1.86-6.248 2.099-1.137.18-1.263 1.782-.166 2.127.452.142 1.008.253 1.694.312.557.049 1.137.023 1.722-.055.979-.132 1.631.958 1.032 1.741l-.167.22c-.126.166-.297.304-.494.378-2.482.932-5.299.972-9.24.133 0 0-1.695.792-.358 1.818.34.26.733.478 1.167.66-.36.283-.552.692.11 1.2.366.281.81.515 1.313.707.368.14.698.43.747.82.026.206.18.448.535.728 2.535 2 8.57 1.823 13.598.102.192-.066.358-.181.488-.338.718-.87 3.32-4.023 6.017-7.346.344-.424.941-.535 1.41-.256 5.422 3.215 23.986 13.984 35.425 17.631.463.148.973.659 1.352.407 15.37-10.2 40.478-42.681 39.942-45.63l1.149-31.285z" transform="translate(-630 -227) translate(630 227) translate(97.608 19.5) translate(.448 137.433)"/>
                        <path fill="#DDEBEF" d="M136.768 43c-3.435 6.821-9.483 9.775-16.941 9.646-12.655-.219-16.92-9.763-16.92-9.763l-30.6 45.151c1.078 5.838 8.928 11.882 16.042 10.976l5.753-6.53-.847 37.703c9.829 9.208 43.604 8.535 53.699.604l-1.486-39.38 5.466 7.506c5.18.895 13.749-3.191 15.847-10.195L136.768 43z" transform="translate(-630 -227) translate(630 227) translate(97.608 19.5) translate(.448 137.433)"/>
                        <path fill="#2A2C30" fill-rule="nonzero" d="M107.337 10.952c-1.714 21.453 2.697 32.096 13.235 31.93 9.446.08 13.562-10.375 12.347-31.368-.936 1.088-1.444 1.857-1.524 2.31-1.704 9.669-4.556 15.093-11.153 15.023-5.763-.152-9.18-6.055-11.563-15.727-.528-.487-.975-1.21-1.342-2.168z" transform="translate(-630 -227) translate(630 227) translate(97.608 19.5) translate(.448 137.433)"/>
                    </g>
                </g>
                <g>
                    <path fill="#FAFBFD" fill-rule="nonzero" d="M56.928 29.229l-54.265-.091c-1.77 2.841-1.378 6.942-.03 9.769h54.295c-1.261-3.206-1.53-6.068 0-9.678z" transform="translate(-630 -227) translate(630 227) translate(58.336 276.8)"/>
                    <path fill="#405C80" d="M2.3 27.458c.035-.003.071-.004.108-.002l.013.002h54.637c.167 0 .327.095.445.265s.184.4.184.639v.112c0 .24-.066.47-.184.64-.118.169-.278.264-.445.264H2.828c-.678 1.36-.971 2.927-.979 4.46 0 0 .006.976.147 1.839.166 1.02.47 2.015.88 2.965h54.182c.167 0 .327.095.445.265s.184.4.184.639v.112c0 .24-.066.47-.184.64-.118.169-.278.264-.445.264H2.434c-.169.023-.343.003-.5-.07-.263-.122-.416-.373-.556-.672-1.25-2.657-1.79-5.785-1.026-8.933 0 0 .09-.367.183-.675.243-.805.56-1.597.994-2.31 0 0 .32-.389.743-.441v-.003H2.3z" transform="translate(-630 -227) translate(630 227) translate(58.336 276.8)"/>
                    <g>
                        <path fill="#F85C1E" fill-rule="nonzero" d="M6.603 9.866c3.07 1.302 4.237.458 6.175-.853 1.24-.838 2.529-.242 3.465.326.655.398 1.232.98 1.79 1.66.513.625 1.223 2.064 1.412 3.2.179 1.079.48 3.325-.266 5.708-2.621 8.359-4.968 7.885-8.975 7.37-3.6.989-4.787 0-6.665-1.726-1.949-1.79-2.703-4.146-3.163-6.13-1.06-4.569.316-7.367 1.707-8.762.55-.553 1.233-.992 2.066-1.142.706-.127 1.52-.047 2.454.35z" transform="translate(-630 -227) translate(630 227) translate(58.336 276.8) translate(3.614)"/>
                        <path fill="#95AAC9" d="M13.669 4.477s-.89.057-1.69.543c-1.251.76-2.695 2.214-2.462 5.202l.582-.021c.13-1.185.566-2.17 1.37-2.914.69-.638 1.35-1.04 2.62-1.298l-.42-1.512" transform="translate(-630 -227) translate(630 227) translate(58.336 276.8) translate(3.614)"/>
                        <path fill="#168B99" d="M.66.003s8.322-.43 8.836 9.22c0 0-8.208.437-8.835-9.22z" transform="translate(-630 -227) translate(630 227) translate(58.336 276.8) translate(3.614)"/>
                    </g>
                </g>
                <path fill="#168B99" d="M363.309 301.083s1.85 6.555-3.308 9.322l-1.768 4.489c1.264-1.36 4.19-3.536 9.092-1.955 0 0-4.102 5.586-9.523 3.052l-.231.585c-.091.2-.19.203-.279.214-.23.027-.436-.23-.357-.465l.54-1.369c-1.376-.86-4.547-3.494-3.485-9.075 0 0 4.19 2.346 4.529 6.42l.871-2.213c-.37-1.483-.9-5.725 3.919-9.005z" transform="translate(-630 -227) translate(630 227)"/>
                <path fill="#DDEBEF" d="M337.627 319.452L340.515 312.809 350.73 309.06 360.342 317.002 359.989 323.527 339.572 323.527z" transform="translate(-630 -227) translate(630 227)"/>
            </g>
        </g>
    </g>
</svg>
